<svg xmlns="http://www.w3.org/2000/svg" viewBox="0 11.300000190734863 69.87000274658203 34.60000228881836" data-asc="0.91796875"><g fill="#08313a"><g fill="#08313a" transform="translate(0, 0)"><path d="M10.99 12.11L22.71 12.11Q23.36 12.11 24.02 12.05Q24.68 11.99 25.32 11.84Q26.07 11.67 26.82 11.49Q27.56 11.30 28.32 11.30Q30.27 11.30 31.05 12.39Q31.84 13.48 32.23 15.16L33.57 20.75Q33.69 21.29 33.69 21.75Q33.69 23.02 32.89 23.74Q32.08 24.46 30.83 24.46Q29.76 24.46 29.14 23.79Q28.52 23.12 28.08 22.14Q27.64 21.17 27.14 20.19Q26.64 19.21 25.82 18.54Q25 17.87 23.56 17.87L22.85 17.87L22.85 37.92Q22.85 38.92 23.34 39.45Q23.83 39.99 24.45 40.39Q25.07 40.80 25.56 41.42Q26.05 42.04 26.05 43.24Q26.05 44.65 25.26 45.28Q24.46 45.90 23.12 45.90L10.55 45.90Q9.23 45.90 8.42 45.25Q7.62 44.60 7.62 43.21Q7.62 42.04 8.11 41.43Q8.59 40.82 9.23 40.41Q9.86 39.99 10.35 39.47Q10.84 38.94 10.84 37.92L10.84 17.87L10.13 17.87Q8.69 17.87 7.87 18.54Q7.06 19.21 6.54 20.19Q6.03 21.17 5.59 22.16Q5.15 23.14 4.55 23.82Q3.96 24.49 2.88 24.49Q1.61 24.49 0.81 23.77Q0 23.05 0 21.75Q0 21.29 0.12 20.75L1.44 15.16Q1.86 13.45 2.64 12.38Q3.42 11.30 5.37 11.30Q6.08 11.30 6.75 11.47Q7.42 11.65 8.11 11.79Q8.81 11.94 9.53 12.02Q10.25 12.11 10.99 12.11ZM69.87 37.79Q69.87 40.28 68.77 41.87Q67.68 43.46 65.88 44.34Q64.09 45.21 61.99 45.56Q59.89 45.90 57.86 45.90L38.72 45.90Q37.40 45.90 36.61 45.26Q35.82 44.63 35.82 43.24Q35.82 42.02 36.32 41.39Q36.82 40.77 37.48 40.38Q38.13 39.99 38.64 39.47Q39.14 38.94 39.14 37.92L39.14 20.09Q39.14 19.02 38.64 18.51Q38.13 17.99 37.48 17.61Q36.82 17.24 36.32 16.63Q35.82 16.02 35.82 14.77Q35.82 13.38 36.61 12.74Q37.40 12.11 38.72 12.11L53.64 12.11Q56.03 12.11 58.56 12.62Q61.08 13.13 63.23 14.31Q65.38 15.48 66.71 17.43Q68.04 19.38 68.04 22.27Q68.04 25.42 66.13 27.21Q64.21 29.00 61.57 29.79Q63.70 30.25 65.59 31.24Q67.48 32.23 68.68 33.84Q69.87 35.45 69.87 37.79M51.29 17.02L51.15 17.02L51.15 28.66L52.03 28.66Q54.79 28.66 55.82 27.08Q56.86 25.49 56.86 22.97Q56.86 20.24 55.49 18.63Q54.13 17.02 51.29 17.02M58.11 37.28Q58.11 35.33 56.97 34.05Q55.83 32.76 53.81 32.76L51.15 32.76L51.15 36.94Q51.15 38.79 52.05 39.90Q52.95 41.02 54.88 41.02Q56.67 41.02 57.39 39.97Q58.11 38.92 58.11 37.28Z"/></g></g></svg>
